PathFileType  4	(X/Y/Z)
DataRate	CameraRate	NumFrames	NumMarkers	Units	OrigDataRate	OrigDataStartFrame	OrigNumFrames
  200.0 	  200.0 	   7 	     50 	mm 	  200.0 	      151 	   1204
Frame#	Time	R.Shoulder			R.Clavicle			R.Bicep			R.Elbow			R.Forearm			R.Wrist			L.Shoulder			L.Clavicle			L.Scapula			L.Bicep			L.Elbow			L.Forearm			L.Wrist			R.ASIS			R.PSIS			S2			L.PSIS			L.ASIS			R.TH1			R.TH2			R.TH3			R.Knee			R.SH1			R.SH2			R.SH3			R.SH4			R.Ankle			R.Heel			R.MT5			L.TH1			L.TH2			L.TH3			L.TH4			L.Knee			L.SH1			L.SH2			L.SH3			L.Ankle			L.Heel			L.MT5			R.Melb			R.GTR			R.Mkn			R.Man			R.MT0			L.Melb			L.GTR			L.Mkn			L.Man			L.MT0			
		X1	Y1	Z1	X2	Y2	Z2	X3	Y3	Z3	X4	Y4	Z4	X5	Y5	Z5	X6	Y6	Z6	X7	Y7	Z7	X8	Y8	Z8	X9	Y9	Z9	X10	Y10	Z10	X11	Y11	Z11	X12	Y12	Z12	X13	Y13	Z13	X14	Y14	Z14	X15	Y15	Z15	X16	Y16	Z16	X17	Y17	Z17	X18	Y18	Z18	X19	Y19	Z19	X20	Y20	Z20	X21	Y21	Z21	X22	Y22	Z22	X23	Y23	Z23	X24	Y24	Z24	X25	Y25	Z25	X26	Y26	Z26	X27	Y27	Z27	X28	Y28	Z28	X29	Y29	Z29	X30	Y30	Z30	X31	Y31	Z31	X32	Y32	Z32	X33	Y33	Z33	X34	Y34	Z34	X35	Y35	Z35	X36	Y36	Z36	X37	Y37	Z37	X38	Y38	Z38	X39	Y39	Z39	X40	Y40	Z40	X41	Y41	Z41	X42	Y42	Z42	X43	Y43	Z43	X44	Y44	Z44	X45	Y45	Z45	X46	Y46	Z46	X47	Y47	Z47	X48	Y48	Z48	X49	Y49	Z49	X50	Y50	Z50	

151	0.75000	534.931	1606.883	-1931.765	615.643	1601.252	-2081.948	586.003	1398.980	-1883.795	469.247	1307.981	-1849.595	550.953	1249.823	-1762.449	503.896	1135.016	-1730.273	570.420	1611.233	-2308.849	624.982	1602.538	-2139.250	442.437	1576.749	-2215.084	613.768	1454.362	-2354.003	518.361	1316.335	-2411.358	583.285	1251.659	-2473.535	549.066	1135.012	-2501.644	657.653	1151.748	-1986.357	426.230	1226.945	-2068.137	418.427	1221.071	-2120.249	432.077	1229.237	-2174.164	656.214	1141.052	-2242.255	594.722	945.200	-1906.152	444.376	958.837	-1935.058	441.165	884.160	-1942.482	493.440	736.643	-1913.475	518.816	604.261	-1880.737	518.645	529.725	-1887.586	409.809	610.110	-1928.865	407.478	533.877	-1924.501	482.039	333.296	-1893.881	416.046	299.489	-1943.448	601.450	276.122	-1863.865	599.520	907.815	-2312.047	602.526	826.493	-2298.909	450.784	908.354	-2306.317	446.119	831.717	-2300.825	497.425	727.237	-2312.760	539.720	641.698	-2334.077	428.424	642.287	-2319.967	423.466	566.318	-2335.822	505.358	338.230	-2357.579	421.610	297.005	-2325.650	604.847	278.580	-2384.163	540.369	1274.948	-1922.028	536.514	1094.566	-1892.291	509.982	694.141	-2077.569	506.598	337.231	-1984.808	618.672	279.349	-1978.636	590.155	1272.129	-2318.956	525.822	1112.244	-2324.154	495.437	694.158	-2146.461	511.361	333.941	-2261.782	624.115	279.327	-2261.489
152	0.75500	534.934	1606.869	-1931.774	615.661	1601.243	-2081.959	586.002	1398.975	-1883.820	469.244	1307.979	-1849.597	550.946	1249.808	-1762.467	503.883	1134.994	-1730.307	570.416	1611.229	-2308.861	625.016	1602.518	-2139.261	442.447	1576.742	-2215.099	613.778	1454.340	-2353.995	518.369	1316.326	-2411.357	583.289	1251.660	-2473.531	549.074	1134.990	-2501.635	657.634	1151.745	-1986.384	426.231	1226.943	-2068.142	418.444	1221.057	-2120.266	432.052	1229.258	-2174.178	656.228	1141.048	-2242.260	594.724	945.200	-1906.157	444.387	958.824	-1935.107	441.168	884.154	-1942.483	493.445	736.637	-1913.477	518.815	604.262	-1880.758	518.651	529.723	-1887.597	409.817	610.106	-1928.889	407.489	533.880	-1924.515	482.044	333.299	-1893.882	416.043	299.485	-1943.460	601.446	276.125	-1863.865	599.541	907.819	-2312.053	602.547	826.495	-2298.909	450.806	908.347	-2306.343	446.137	831.718	-2300.842	497.424	727.242	-2312.767	539.743	641.688	-2334.093	428.418	642.284	-2319.976	423.470	566.319	-2335.826	505.358	338.232	-2357.585	421.611	297.005	-2325.651	604.852	278.581	-2384.161	540.355	1274.931	-1922.048	536.525	1094.563	-1892.302	509.994	694.136	-2077.573	506.595	337.229	-1984.808	618.678	279.350	-1978.638	590.138	1272.113	-2318.949	525.835	1112.252	-2324.197	495.441	694.160	-2146.467	511.359	333.944	-2261.784	624.116	279.327	-2261.487
153	0.76000	534.935	1606.855	-1931.786	615.677	1601.236	-2081.970	586.001	1398.972	-1883.843	469.238	1307.979	-1849.603	550.934	1249.795	-1762.485	503.864	1134.972	-1730.345	570.412	1611.224	-2308.874	625.050	1602.498	-2139.272	442.458	1576.734	-2215.116	613.787	1454.318	-2353.988	518.378	1316.316	-2411.359	583.293	1251.661	-2473.527	549.084	1134.967	-2501.628	657.611	1151.742	-1986.416	426.233	1226.942	-2068.147	418.460	1221.042	-2120.281	432.027	1229.278	-2174.194	656.241	1141.045	-2242.266	594.725	945.199	-1906.163	444.398	958.812	-1935.154	441.171	884.146	-1942.484	493.453	736.632	-1913.477	518.812	604.263	-1880.782	518.659	529.720	-1887.607	409.826	610.102	-1928.912	407.500	533.882	-1924.528	482.049	333.301	-1893.882	416.040	299.481	-1943.472	601.442	276.128	-1863.864	599.560	907.821	-2312.059	602.567	826.497	-2298.909	450.834	908.337	-2306.366	446.154	831.719	-2300.856	497.423	727.247	-2312.773	539.765	641.678	-2334.107	428.412	642.281	-2319.984	423.473	566.320	-2335.830	505.358	338.234	-2357.590	421.613	297.005	-2325.652	604.858	278.583	-2384.160	540.339	1274.916	-1922.069	536.535	1094.561	-1892.313	510.006	694.131	-2077.578	506.592	337.227	-1984.808	618.682	279.351	-1978.639	590.123	1272.098	-2318.944	525.846	1112.260	-2324.235	495.446	694.161	-2146.473	511.357	333.947	-2261.785	624.118	279.326	-2261.485
154	0.76500	534.934	1606.843	-1931.801	615.691	1601.230	-2081.982	586.000	1398.969	-1883.867	469.231	1307.981	-1849.612	550.917	1249.782	-1762.502	503.840	1134.949	-1730.385	570.408	1611.217	-2308.890	625.082	1602.477	-2139.283	442.470	1576.725	-2215.134	613.797	1454.295	-2353.982	518.387	1316.306	-2411.363	583.297	1251.662	-2473.525	549.095	1134.944	-2501.624	657.586	1151.738	-1986.451	426.234	1226.940	-2068.152	418.476	1221.025	-2120.293	432.003	1229.297	-2174.212	656.252	1141.040	-2242.270	594.727	945.198	-1906.168	444.409	958.799	-1935.197	441.174	884.138	-1942.485	493.465	736.628	-1913.475	518.808	604.264	-1880.808	518.667	529.717	-1887.618	409.835	610.099	-1928.934	407.509	533.885	-1924.540	482.053	333.303	-1893.883	416.037	299.477	-1943.484	601.439	276.131	-1863.864	599.579	907.823	-2312.064	602.586	826.499	-2298.908	450.866	908.327	-2306.387	446.169	831.720	-2300.867	497.422	727.252	-2312.778	539.786	641.668	-2334.118	428.406	642.279	-2319.991	423.476	566.321	-2335.834	505.358	338.236	-2357.593	421.614	297.005	-2325.653	604.862	278.584	-2384.158	540.323	1274.905	-1922.089	536.542	1094.559	-1892.321	510.018	694.125	-2077.582	506.589	337.224	-1984.808	618.685	279.351	-1978.639	590.112	1272.082	-2318.941	525.856	1112.267	-2324.268	495.450	694.163	-2146.480	511.356	333.950	-2261.784	624.120	279.326	-2261.483
155	0.77000	534.930	1606.833	-1931.819	615.704	1601.224	-2081.992	585.998	1398.966	-1883.889	469.221	1307.984	-1849.624	550.895	1249.770	-1762.519	503.809	1134.925	-1730.427	570.404	1611.209	-2308.907	625.113	1602.456	-2139.294	442.483	1576.716	-2215.155	613.808	1454.273	-2353.977	518.397	1316.296	-2411.370	583.302	1251.663	-2473.524	549.107	1134.920	-2501.622	657.559	1151.734	-1986.489	426.236	1226.938	-2068.158	418.492	1221.006	-2120.303	431.980	1229.315	-2174.231	656.262	1141.035	-2242.274	594.728	945.198	-1906.173	444.420	958.787	-1935.237	441.176	884.130	-1942.486	493.479	736.624	-1913.470	518.804	604.264	-1880.835	518.677	529.714	-1887.629	409.844	610.095	-1928.956	407.518	533.888	-1924.552	482.056	333.304	-1893.884	416.034	299.473	-1943.496	601.435	276.132	-1863.863	599.595	907.823	-2312.069	602.604	826.502	-2298.907	450.903	908.316	-2306.404	446.183	831.721	-2300.876	497.420	727.257	-2312.781	539.804	641.658	-2334.127	428.400	642.276	-2319.996	423.478	566.321	-2335.837	505.357	338.236	-2357.594	421.616	297.005	-2325.654	604.866	278.585	-2384.157	540.305	1274.897	-1922.111	536.549	1094.557	-1892.329	510.031	694.119	-2077.587	506.586	337.222	-1984.808	618.685	279.351	-1978.640	590.103	1272.067	-2318.940	525.864	1112.273	-2324.297	495.454	694.165	-2146.486	511.356	333.951	-2261.781	624.121	279.326	-2261.481
156	0.77500	534.922	1606.824	-1931.841	615.715	1601.220	-2082.003	585.996	1398.964	-1883.910	469.208	1307.988	-1849.638	550.867	1249.760	-1762.535	503.772	1134.900	-1730.472	570.401	1611.200	-2308.927	625.143	1602.434	-2139.306	442.496	1576.706	-2215.176	613.818	1454.250	-2353.972	518.406	1316.287	-2411.381	583.306	1251.664	-2473.524	549.119	1134.897	-2501.625	657.530	1151.729	-1986.531	426.238	1226.936	-2068.165	418.507	1220.985	-2120.310	431.959	1229.330	-2174.251	656.270	1141.029	-2242.278	594.730	945.197	-1906.179	444.431	958.775	-1935.273	441.179	884.121	-1942.488	493.496	736.622	-1913.464	518.800	604.265	-1880.863	518.686	529.710	-1887.640	409.853	610.092	-1928.976	407.526	533.892	-1924.562	482.059	333.304	-1893.885	416.032	299.470	-1943.508	601.432	276.134	-1863.863	599.610	907.822	-2312.073	602.621	826.504	-2298.907	450.944	908.303	-2306.419	446.195	831.721	-2300.883	497.418	727.261	-2312.784	539.821	641.648	-2334.134	428.394	642.274	-2320.001	423.480	566.322	-2335.840	505.357	338.237	-2357.593	421.617	297.005	-2325.656	604.870	278.587	-2384.156	540.286	1274.893	-1922.133	536.555	1094.555	-1892.335	510.045	694.113	-2077.592	506.583	337.220	-1984.808	618.685	279.351	-1978.639	590.097	1272.050	-2318.941	525.870	1112.279	-2324.322	495.458	694.167	-2146.492	511.357	333.953	-2261.776	624.123	279.325	-2261.480
157	0.78000	534.911	1606.816	-1931.866	615.725	1601.217	-2082.013	585.994	1398.962	-1883.930	469.194	1307.992	-1849.654	550.833	1249.750	-1762.551	503.728	1134.874	-1730.519	570.399	1611.188	-2308.948	625.171	1602.413	-2139.318	442.511	1576.696	-2215.199	613.830	1454.227	-2353.969	518.415	1316.278	-2411.396	583.309	1251.665	-2473.526	549.131	1134.875	-2501.632	657.499	1151.725	-1986.575	426.240	1226.934	-2068.171	418.522	1220.963	-2120.316	431.940	1229.342	-2174.273	656.277	1141.022	-2242.282	594.731	945.197	-1906.184	444.441	958.764	-1935.306	441.181	884.113	-1942.490	493.516	736.620	-1913.456	518.796	604.264	-1880.890	518.695	529.706	-1887.651	409.863	610.089	-1928.996	407.534	533.895	-1924.571	482.061	333.303	-1893.886	416.029	299.466	-1943.519	601.429	276.134	-1863.862	599.623	907.821	-2312.077	602.637	826.506	-2298.907	450.988	908.289	-2306.432	446.205	831.721	-2300.888	497.416	727.266	-2312.786	539.836	641.638	-2334.140	428.389	642.273	-2320.005	423.482	566.323	-2335.842	505.356	338.236	-2357.590	421.619	297.005	-2325.658	604.872	278.588	-2384.154	540.266	1274.893	-1922.156	536.559	1094.554	-1892.339	510.058	694.106	-2077.598	506.580	337.218	-1984.807	618.683	279.351	-1978.639	590.093	1272.033	-2318.944	525.876	1112.283	-2324.342	495.461	694.168	-2146.499	511.358	333.954	-2261.769	624.124	279.325	-2261.478
